<svg width="60" height="45" viewBox="0 0 60 45" fill="none" xmlns="http://www.w3.org/2000/svg">
<g clip-path="url(#clip0_2714_14499)">
<path fill-rule="evenodd" clip-rule="evenodd" d="M0 0H60V45H0V0Z" fill="#00ABC2"/>
<path fill-rule="evenodd" clip-rule="evenodd" d="M5.6437 43.7812C5.95308 44.0812 5.84995 44.5781 6.70308 44.5125C7.99683 44.5125 8.03433 43.725 8.03433 43.1719C8.03433 42.6187 6.0937 41.85 5.99995 41.0344C5.9062 40.2187 6.44995 40.0031 6.89995 40.0031C7.34058 40.0031 7.64995 40.2562 7.64995 40.4812C7.64995 40.7062 7.4437 40.7812 7.12495 40.7812C6.8062 40.7812 7.26558 40.6219 6.9937 40.5C6.72183 40.3781 6.5437 40.6875 6.5437 40.875C6.5437 41.0812 7.2187 41.1375 7.6687 40.9969C7.76245 41.4375 7.79995 41.4656 7.17183 42.2156C7.62183 41.925 7.65933 41.8594 8.1562 42.0281C7.65933 41.5969 8.03433 40.7344 8.0437 40.5187C8.05308 40.3031 7.94995 40.0406 7.76245 39.9094C7.39683 39.5812 6.6187 39.5625 6.14995 39.7781C5.46558 40.0781 5.42808 40.9781 5.6062 41.2781L7.49995 43.1906C7.6312 43.4156 7.68745 44.0531 6.8812 44.0812C6.03745 44.1469 5.73745 42.9937 5.58745 42.6094C5.39058 43.0312 5.16558 44.1844 4.31245 44.1187C3.5062 44.0906 3.3562 43.4625 3.48745 43.2281L5.42808 41.2594C5.61558 40.9594 5.57808 40.0594 4.8937 39.7594C4.42495 39.5437 3.64683 39.5719 3.29058 39.8906C3.08433 40.0219 2.97183 40.275 2.99058 40.5C3.00933 40.725 3.37495 41.5781 2.88745 42C3.37495 41.8406 3.42183 41.9062 3.87183 42.1875C3.2437 41.4469 3.29058 41.4187 3.37495 40.9687C3.82495 41.1187 4.49995 41.0625 4.49995 40.8656C4.49995 40.6687 4.31245 40.3406 4.04058 40.4719C3.77808 40.6031 4.22808 40.7625 3.90933 40.7625C3.59995 40.7625 3.37495 40.6969 3.37495 40.4812C3.37495 40.2656 3.68433 39.9844 4.13433 39.9844C4.58433 39.9844 5.1187 40.2094 5.02495 41.025C4.9312 41.8406 2.96245 42.7219 2.96245 43.275C2.96245 43.8375 3.0937 44.5031 4.38745 44.5031C5.2312 44.5687 5.33433 44.0719 5.6437 43.7719V43.7812Z" fill="#FFEC2D"/>
<path fill-rule="evenodd" clip-rule="evenodd" d="M5.54067 32.1842C5.85005 31.8842 6.10317 31.003 6.94692 31.0592C8.24067 31.0592 8.72817 31.7811 8.72817 32.3342C8.72817 32.8873 6.10317 37.3967 6.00942 38.2123C5.91567 39.028 6.45942 39.253 6.90005 39.253C7.35005 39.253 7.65942 38.9998 7.65942 38.7655C7.65942 38.5311 7.43442 38.4842 7.12505 38.4842C6.81567 38.4842 7.2563 38.6436 6.9938 38.7655C6.7313 38.8873 6.5438 38.578 6.5438 38.3811C6.5438 38.1842 7.2188 38.1186 7.6688 38.2686C7.75317 37.828 7.79067 37.7998 7.17192 37.0498C7.62192 37.3311 7.65942 37.4061 8.1563 37.2373C7.65942 37.6686 8.02505 38.5217 8.0438 38.7373C8.06255 38.953 7.95005 39.2248 7.75317 39.3561C7.39692 39.6842 6.60942 39.6936 6.14067 39.4873C5.46567 39.178 5.42817 38.2873 5.6063 37.9873L8.1563 32.4936C8.29692 32.2686 7.94067 31.5186 7.13442 31.4905C6.29067 31.4248 6.00005 32.3155 5.85005 32.6998L7.00317 32.6061C7.00317 32.6061 7.05005 32.7936 7.00317 32.9061C6.61628 32.9344 6.2313 32.9844 5.85005 33.0561L5.80317 33.6373H6.36567L6.32817 33.8998C6.32817 33.8998 5.85005 33.8623 5.80317 33.8998C5.7563 33.928 5.70942 34.4811 5.70942 34.4811C5.70942 34.4811 5.61567 34.5186 5.52192 34.5186C5.42817 34.5186 5.33442 34.4811 5.33442 34.4811C5.33442 34.4811 5.29692 33.928 5.25005 33.8998C5.20317 33.8623 4.72505 33.8998 4.72505 33.8998L4.67817 33.6373H5.25005L5.20317 33.0561C5.20317 33.0561 4.64067 32.9436 4.05005 32.9061C4.01255 32.7936 4.05005 32.6155 4.05005 32.6155L5.20317 32.6998C5.05317 32.3155 4.76255 31.4248 3.9188 31.4811C3.11255 31.5186 2.7563 32.2686 2.88755 32.4936L5.43755 37.9873C5.61567 38.278 5.57817 39.178 4.90317 39.4873C4.43442 39.6936 3.64692 39.6748 3.29067 39.3561C3.0938 39.2248 2.9813 38.9623 3.00005 38.7467C3.0188 38.5311 3.37505 37.6592 2.88755 37.2467C3.38442 37.4061 3.4313 37.3405 3.87192 37.0498C3.25317 37.7998 3.29067 37.828 3.38442 38.2686C3.82505 38.1186 4.50005 38.1748 4.50005 38.3811C4.50005 38.5686 4.31255 38.8967 4.05005 38.7655C3.78755 38.6342 4.23755 38.4842 3.9188 38.4842C3.60942 38.4842 3.38442 38.5405 3.38442 38.7655C3.38442 38.9905 3.6938 39.253 4.13442 39.253C4.57505 39.253 5.1188 39.028 5.03442 38.2217C4.94067 37.4061 2.31567 32.878 2.31567 32.3342C2.31567 31.7717 2.80317 31.0686 4.09692 31.0686C4.94067 31.003 5.25005 31.8842 5.55005 32.1842H5.54067Z" fill="#FFEC2D"/>
<path fill-rule="evenodd" clip-rule="evenodd" d="M5.54067 29.9438C5.85005 30.2438 6.10317 31.125 6.94692 31.0688C8.24067 31.0688 8.72817 30.3469 8.72817 29.7938C8.72817 29.2407 6.10317 24.7313 6.00942 23.9157C5.91567 23.1 6.45942 22.875 6.90005 22.875C7.35005 22.875 7.65942 23.1282 7.65942 23.3625C7.65942 23.5969 7.43442 23.6438 7.12505 23.6438C6.81567 23.6438 7.2563 23.4938 6.9938 23.3625C6.7313 23.2313 6.5438 23.55 6.5438 23.7469C6.5438 23.9438 7.2188 24.0094 7.6688 23.8594C7.75317 24.3 7.79067 24.3282 7.17192 25.0782C7.62192 24.7969 7.65942 24.7219 8.1563 24.8907C7.65942 24.4594 8.02505 23.6063 8.0438 23.3907C8.06255 23.175 7.95005 22.9032 7.75317 22.7719C7.39692 22.4532 6.60942 22.4344 6.14067 22.6407C5.46567 22.95 5.42817 23.8407 5.6063 24.1407L8.1563 29.625C8.29692 29.85 7.94067 30.6 7.13442 30.6282C6.29067 30.6938 6.00005 29.8032 5.85005 29.4188L7.00317 29.5125C7.00317 29.5125 7.05005 29.325 7.00317 29.2125C6.61628 29.1843 6.2313 29.1342 5.85005 29.0625L5.80317 28.4813H6.36567L6.32817 28.2188C6.32817 28.2188 5.85005 28.2563 5.80317 28.2188C5.7563 28.1907 5.70942 27.6375 5.70942 27.6375C5.70942 27.6375 5.61567 27.6 5.52192 27.6C5.42817 27.6 5.33442 27.6375 5.33442 27.6375C5.33442 27.6375 5.29692 28.1907 5.25005 28.2188C5.20317 28.2563 4.72505 28.2188 4.72505 28.2188L4.67817 28.4813H5.25005L5.20317 29.0625C5.20317 29.0625 4.64067 29.175 4.05005 29.2125C4.01255 29.325 4.05005 29.5032 4.05005 29.5032L5.20317 29.4188C5.05317 29.8032 4.76255 30.6938 3.9188 30.6375C3.11255 30.6 2.7563 29.85 2.88755 29.625L5.43755 24.1407C5.61567 23.8407 5.57817 22.95 4.90317 22.6407C4.43442 22.4344 3.64692 22.4532 3.29067 22.7719C3.0938 22.9032 2.9813 23.1657 3.00005 23.3813C3.0188 23.5969 3.37505 24.4594 2.88755 24.8813C3.38442 24.7219 3.4313 24.7875 3.87192 25.0782C3.25317 24.3282 3.29067 24.3 3.38442 23.8594C3.82505 24.0094 4.50005 23.9532 4.50005 23.7469C4.50005 23.5594 4.31255 23.2313 4.05005 23.3625C3.78755 23.4938 4.23755 23.6438 3.9188 23.6438C3.60942 23.6438 3.38442 23.5875 3.38442 23.3625C3.38442 23.1375 3.6938 22.875 4.13442 22.875C4.57505 22.875 5.1188 23.1 5.03442 23.9063C4.94067 24.7219 2.31567 29.25 2.31567 29.7938C2.31567 30.3563 2.80317 31.0594 4.09692 31.0594C4.94067 31.125 5.25005 30.2438 5.55005 29.9438H5.54067Z" fill="#FFEC2D"/>
<path fill-rule="evenodd" clip-rule="evenodd" d="M5.54067 15.0563C5.85005 14.7563 6.10317 13.875 6.94692 13.9313C8.24067 13.9313 8.72817 14.6532 8.72817 15.2063C8.72817 15.7594 6.10317 20.2688 6.00942 21.0938C5.91567 21.9 6.45942 22.125 6.90005 22.125C7.35005 22.125 7.65942 21.8719 7.65942 21.6469C7.65942 21.4219 7.43442 21.3469 7.12505 21.3469C6.81567 21.3469 7.2563 21.5157 6.9938 21.6469C6.7313 21.7782 6.5438 21.45 6.5438 21.2532C6.5438 21.0657 7.2188 20.9907 7.6688 21.1407C7.75317 20.7 7.79067 20.6719 7.17192 19.9219C7.62192 20.2125 7.65942 20.2782 8.1563 20.1094C7.65942 20.5407 8.02505 21.4032 8.0438 21.6094C8.06255 21.8157 7.95005 22.0969 7.75317 22.2282C7.39692 22.5563 6.60942 22.5657 6.14067 22.3594C5.46567 22.05 5.42817 21.1594 5.6063 20.8594L8.1563 15.375C8.29692 15.15 7.94067 14.4 7.13442 14.3719C6.29067 14.3063 6.00005 15.1969 5.85005 15.5813L7.00317 15.4875C7.00317 15.4875 7.05005 15.675 7.00317 15.7875C6.40317 15.825 5.85005 15.9375 5.85005 15.9375L5.80317 16.5188H6.36567L6.32817 16.7813C6.32817 16.7813 5.85005 16.7532 5.80317 16.7813C5.7563 16.8094 5.70942 17.3719 5.70942 17.3719C5.70942 17.3719 5.61567 17.4 5.52192 17.4C5.42817 17.4 5.33442 17.3719 5.33442 17.3719C5.33442 17.3719 5.29692 16.8094 5.25005 16.7813C5.20317 16.7532 4.72505 16.7813 4.72505 16.7813L4.67817 16.5188H5.25005L5.20317 15.9375C5.20317 15.9375 4.64067 15.825 4.05005 15.7875C4.01255 15.675 4.05005 15.4969 4.05005 15.4969L5.20317 15.5813C5.05317 15.1969 4.76255 14.3063 3.9188 14.3625C3.11255 14.4 2.7563 15.15 2.88755 15.375L5.43755 20.8594C5.61567 21.1594 5.57817 22.05 4.90317 22.3594C4.43442 22.5657 3.64692 22.5469 3.29067 22.2282C3.0938 22.0969 2.9813 21.8344 3.00005 21.6188C3.0188 21.4032 3.37505 20.5407 2.88755 20.1188C3.38442 20.2782 3.4313 20.2125 3.87192 19.9219C3.25317 20.6719 3.29067 20.7 3.38442 21.1407C3.82505 20.9907 4.50005 21.0563 4.50005 21.2532C4.50005 21.4407 4.31255 21.7688 4.05005 21.6375C3.78755 21.5157 4.23755 21.3563 3.9188 21.3563C3.60942 21.3563 3.38442 21.4125 3.38442 21.6375C3.38442 21.8625 3.6938 22.125 4.13442 22.125C4.57505 22.125 5.1188 21.9 5.03442 21.0938C4.94067 20.2782 2.31567 15.7594 2.31567 15.2063C2.31567 14.6532 2.80317 13.9407 4.09692 13.9407C4.94067 13.875 5.25005 14.7563 5.55005 15.0657L5.54067 15.0563Z" fill="#FFEC2D"/>
<path fill-rule="evenodd" clip-rule="evenodd" d="M5.54067 12.8154C5.85005 13.1154 6.10317 14.006 6.94692 13.9404C8.24067 13.9404 8.72817 13.2185 8.72817 12.6654C8.72817 12.1122 6.10317 7.60287 6.00942 6.78725C5.91567 5.97162 6.45942 5.74662 6.90005 5.74662C7.35005 5.74662 7.65942 6.00912 7.65942 6.23412C7.65942 6.45912 7.43442 6.52475 7.12505 6.52475C6.81567 6.52475 7.2563 6.36537 6.9938 6.23412C6.7313 6.10287 6.5438 6.42162 6.5438 6.6185C6.5438 6.81537 7.2188 6.881 7.6688 6.731C7.75317 7.17162 7.79067 7.19975 7.17192 7.94975C7.62192 7.6685 7.65942 7.5935 8.1563 7.76225C7.65942 7.34037 8.02505 6.47787 8.0438 6.26225C8.06255 6.04662 7.95005 5.77475 7.75317 5.6435C7.39692 5.32475 6.60942 5.306 6.14067 5.52162C5.46567 5.82162 5.42817 6.72162 5.6063 7.01225L8.1563 12.506C8.29692 12.731 7.94067 13.481 7.13442 13.5185C6.29067 13.5747 6.00005 12.6935 5.85005 12.2997L7.00317 12.3935C7.00317 12.3935 7.05005 12.206 7.00317 12.0935C6.61649 12.068 6.23152 12.0211 5.85005 11.9529L5.80317 11.3622H6.36567L6.32817 11.0997C6.32817 11.0997 5.85005 11.1372 5.80317 11.0997C5.7563 11.0716 5.70942 10.5185 5.70942 10.5185C5.70942 10.5185 5.61567 10.481 5.52192 10.481C5.42817 10.481 5.33442 10.5185 5.33442 10.5185C5.33442 10.5185 5.29692 11.0716 5.25005 11.0997C5.20317 11.1372 4.72505 11.0997 4.72505 11.0997L4.67817 11.3622H5.25005L5.20317 11.9529C5.20317 11.9529 4.64067 12.056 4.05005 12.0935C4.01255 12.2154 4.05005 12.3935 4.05005 12.3935L5.20317 12.2997C5.05317 12.6935 4.76255 13.5747 3.9188 13.5185C3.11255 13.481 2.7563 12.731 2.88755 12.506L5.43755 7.01225C5.61567 6.72162 5.57817 5.82162 4.90317 5.51225C4.43442 5.306 3.64692 5.32475 3.29067 5.6435C3.0938 5.77475 2.9813 6.03725 3.00005 6.25287C3.0188 6.4685 3.37505 7.34037 2.88755 7.75287C3.38442 7.5935 3.4313 7.65912 3.87192 7.94975C3.25317 7.19975 3.29067 7.17162 3.38442 6.731C3.83442 6.881 4.50005 6.82475 4.50005 6.6185C4.50005 6.431 4.31255 6.10287 4.05005 6.23412C3.78755 6.36537 4.23755 6.52475 3.9188 6.52475C3.60942 6.52475 3.38442 6.45912 3.38442 6.23412C3.38442 6.00912 3.6938 5.74662 4.13442 5.74662C4.57505 5.74662 5.12817 5.97162 5.03442 6.77787C4.94067 7.5935 2.31567 12.1216 2.31567 12.6654C2.31567 13.2279 2.80317 13.9404 4.09692 13.9404C4.94067 14.006 5.25005 13.1154 5.55005 12.8154H5.54067Z" fill="#FFEC2D"/>
<path fill-rule="evenodd" clip-rule="evenodd" d="M5.6437 1.2186C5.95308 0.918598 5.84995 0.421723 6.70308 0.487348C7.99683 0.487348 8.03433 1.27485 8.03433 1.82797C8.03433 2.3811 6.0937 3.14985 5.99995 3.96547C5.9062 4.7811 6.44995 4.99672 6.89995 4.99672C7.34058 4.99672 7.64995 4.7436 7.64995 4.5186C7.64995 4.2936 7.4437 4.2186 7.12495 4.2186C6.8062 4.2186 7.26558 4.37797 6.9937 4.49985C6.72183 4.62172 6.5437 4.31235 6.5437 4.12485C6.5437 3.9186 7.2187 3.85297 7.6687 4.00297C7.76245 3.56235 7.79995 3.53422 7.17183 2.78422C7.62183 3.07485 7.65933 3.14047 8.1562 2.97172C7.65933 3.40297 8.03433 4.26547 8.0437 4.4811C8.05308 4.69672 7.94995 4.95922 7.76245 5.09047C7.38745 5.43735 6.60933 5.43735 6.14058 5.2311C5.4562 4.9311 5.4187 4.0311 5.59683 3.7311L7.49995 1.80922C7.6312 1.58422 7.68745 0.946723 6.8812 0.918598C6.03745 0.852973 5.73745 2.0061 5.58745 2.39047C5.39058 1.9686 5.16558 0.806098 4.31245 0.871723C3.5062 0.899848 3.3562 1.52797 3.48745 1.76235L5.42808 3.7311C5.61558 4.0311 5.57808 4.9311 4.8937 5.2311C4.42495 5.44672 3.64683 5.42797 3.29058 5.09985C3.08433 4.9686 2.97183 4.71547 2.99058 4.49047C3.00933 4.26547 3.37495 3.41235 2.88745 2.99047C3.37495 3.14985 3.42183 3.08422 3.86245 2.80297C3.2437 3.5436 3.29058 3.57172 3.37495 4.02172C3.82495 3.87172 4.49995 3.92797 4.49995 4.12485C4.49995 4.32172 4.31245 4.64985 4.04058 4.5186C3.77808 4.38735 4.22808 4.22797 3.90933 4.22797C3.59995 4.22797 3.37495 4.2936 3.37495 4.50922C3.37495 4.72485 3.68433 5.0061 4.13433 5.0061C4.58433 5.0061 5.1187 4.7811 5.02495 3.96547C4.9312 3.14985 2.96245 2.2686 2.96245 1.71547C2.96245 1.15297 3.0937 0.487348 4.38745 0.487348C5.2312 0.421723 5.33433 0.918598 5.6437 1.2186Z" fill="#FFEC2D"/>
<path d="M41.3924 19.3042C41.3924 14.8473 37.5801 11.2344 32.8774 11.2344C28.1746 11.2344 24.3623 14.8473 24.3623 19.3042C24.3623 23.761 28.1746 27.374 32.8774 27.374C37.5801 27.374 41.3924 23.761 41.3924 19.3042Z" fill="#FFEC2D"/>
<path fill-rule="evenodd" clip-rule="evenodd" d="M32.477 6.42163C32.397 6.42163 32.0167 9.10322 31.8766 9.70357C31.7366 11.0544 33.6777 11.0043 33.3575 9.65354L32.477 6.41162V6.42163ZM33.1574 32.4171C33.2274 32.4171 33.8078 29.7655 33.9979 29.1751C34.228 27.8443 32.2869 27.7743 32.497 29.1351L33.1574 32.4171ZM19.5894 19.2492C19.5894 19.3193 22.381 19.8796 23.0014 20.0597C24.4022 20.2899 24.5023 18.4588 23.0614 18.6589L19.5894 19.2592V19.2492ZM46.7755 19.5694C46.7755 19.4994 43.9538 19.0391 43.3234 18.879C41.9126 18.7089 41.9026 20.54 43.3234 20.2899L46.7755 19.5694ZM22.4511 10.7442C22.401 10.7942 24.2421 12.8755 24.6123 13.3858C25.5729 14.3864 26.8437 12.9855 25.5729 12.3051L22.4511 10.7542V10.7442ZM43.5736 27.8543C43.6236 27.8043 41.6024 25.8832 41.1822 25.4129C40.1315 24.4923 39.0009 25.9832 40.3217 26.5636L43.5736 27.8644V27.8543ZM26.6636 7.84247C26.6035 7.87249 27.464 10.454 27.6041 11.0644C28.0844 12.3351 29.8254 11.5046 28.9249 10.414L26.6736 7.84247H26.6636ZM38.9809 31.0963C39.0509 31.0662 38.3805 28.4347 38.2904 27.8243C37.9002 26.5236 36.1092 27.224 36.9196 28.3847L38.9909 31.0863L38.9809 31.0963ZM42.0127 9.64354C41.9526 9.59351 39.7313 11.3045 39.191 11.6447C38.1203 12.5453 39.5712 13.766 40.3116 12.5753L42.0127 9.64354ZM23.7018 29.025C23.7518 29.0751 26.1032 27.5242 26.6636 27.214C27.7942 26.3935 26.4434 25.0727 25.6129 26.2134L23.7118 29.025H23.7018ZM20.1997 14.6065C20.1697 14.6665 22.6011 16.0774 23.1315 16.4476C24.3822 17.098 25.1126 15.397 23.6818 15.1268L20.1997 14.6065ZM45.5848 24.4523C45.6148 24.3923 43.2834 22.8214 42.7831 22.4211C41.5824 21.6807 40.7319 23.3317 42.1427 23.6919L45.5848 24.4523ZM37.52 7.15206C37.45 7.13205 36.0591 9.49345 35.6889 10.0038C35.6896 10.1667 35.7413 10.3254 35.8367 10.4575C35.9321 10.5896 36.0665 10.6885 36.221 10.7404C36.3755 10.7922 36.5423 10.7944 36.6981 10.7467C36.8539 10.6989 36.9909 10.6036 37.0897 10.474L37.52 7.15206ZM28.1244 31.5966C28.1945 31.6266 29.7554 29.3552 30.1556 28.8649C30.8861 27.7043 29.115 26.9638 28.7848 28.3046L28.1244 31.5966ZM20.3698 24.6624C20.3998 24.7225 23.1715 24.0621 23.8219 23.962C25.1827 23.5818 24.4222 21.9008 23.2215 22.6813L20.3698 24.6624ZM45.5948 14.3864C45.5748 14.3263 42.7631 14.7966 42.1127 14.8566C40.7119 15.1468 41.3623 16.8778 42.613 16.1774L45.5948 14.3864Z" fill="#FFEC2D"/>
<path fill-rule="evenodd" clip-rule="evenodd" d="M35.2386 6.59155C35.1685 6.58154 34.228 9.13306 33.9478 9.69339C33.5376 10.9942 35.4487 11.3144 35.4187 9.93353L35.2486 6.58154L35.2386 6.59155ZM30.3857 32.1967C30.4557 32.2168 31.5864 29.7253 31.9066 29.1749C32.4069 27.9142 30.5258 27.4739 30.4557 28.8448L30.3757 32.1967H30.3857ZM29.4151 6.8417C29.3451 6.86171 29.6052 9.56331 29.6052 10.1837C29.7954 11.5145 31.6665 11.0542 31.0461 9.81346L29.4151 6.8417ZM36.2192 32.0467C36.2892 32.0366 36.2192 29.325 36.2692 28.7047C36.1791 27.3539 34.268 27.6941 34.8083 28.9748L36.2092 32.0467H36.2192ZM24.5923 9.08303C24.5322 9.12305 25.863 11.5145 26.1132 12.0848C26.8336 13.2555 28.3845 12.1549 27.2939 11.2243L24.5923 9.08303ZM41.0821 29.8854C41.1421 29.8453 39.9814 27.3639 39.7813 26.7835C39.1509 25.5728 37.5299 26.5734 38.5405 27.564L41.0821 29.8854ZM21.0702 12.445C21.0302 12.5051 23.1814 14.2861 23.6317 14.7464C24.7424 15.5869 25.773 14.026 24.4122 13.5357L21.0702 12.445ZM44.5041 26.4233C44.5441 26.3633 42.5329 24.4421 42.1127 23.9619C41.072 23.0513 39.9314 24.5422 41.2522 25.1225L44.5041 26.4233ZM19.5293 16.6375C19.5092 16.7076 22.1608 17.7182 22.7412 18.0083C24.082 18.4586 24.5122 16.6675 23.0513 16.6275L19.5293 16.6375ZM46.2851 22.4209C46.3152 22.3609 43.7436 21.1802 43.1833 20.85C41.8825 20.3097 41.3122 22.0707 42.763 22.2108L46.2851 22.4209ZM19.4392 21.7906C19.4492 21.8506 22.3109 21.8106 22.9613 21.8606C24.3821 21.7906 24.0419 19.9795 22.6811 20.4698L19.4392 21.7906ZM46.4753 17.2879C46.4753 17.2179 43.6136 17.0678 42.9732 16.9777C41.5423 16.9577 41.7524 18.7888 43.1433 18.3785L46.4753 17.2779V17.2879ZM21.8907 27.1337C21.9307 27.1938 24.4922 25.973 25.0926 25.7429C26.3333 25.0925 25.1926 23.6016 24.202 24.6122L21.8907 27.1337ZM44.1339 11.8947C44.0938 11.8347 41.4623 12.8853 40.8319 13.0754C39.5411 13.6457 40.5717 15.2067 41.6324 14.2661L44.1339 11.8947ZM26.0531 30.6758C26.1132 30.7059 27.9443 28.6246 28.4045 28.1844C29.275 27.1137 27.6041 26.1832 27.1138 27.4839L26.0531 30.6758ZM40.0314 8.28255C39.9814 8.24253 38.0002 10.1937 37.5099 10.6039C36.5694 11.6145 38.1703 12.6551 38.7507 11.3944L40.0214 8.28255H40.0314Z" fill="#FFEC2D"/>
<path fill-rule="evenodd" clip-rule="evenodd" d="M19.8577 24.6715C20.0106 25.1876 20.0324 28.0773 23.1114 30.8639C26.1686 33.6298 31.4095 34.2491 31.4095 34.2491C31.4095 34.2491 31.4313 34.6413 31.0601 34.6619C30.6889 34.7032 28.8982 34.3523 28.0029 34.0839C27.1294 33.8363 26.3433 33.3821 26.256 33.4028C26.1468 33.4441 25.9721 33.733 25.71 33.6918C25.448 33.6505 24.1814 32.412 23.6137 32.0817C22.4781 31.1539 21.4727 30.0926 20.622 28.9236C20.0106 27.9948 19.8577 27.3755 19.6612 27.3755C19.4647 27.3755 18.744 27.8297 18.744 27.8297C18.744 27.8297 18.0889 26.9008 17.5212 25.4146C16.9316 23.9285 16.9971 23.0615 17.1281 22.9996C17.281 22.9377 17.281 24.0936 17.7177 25.1463C18.1544 26.2196 18.7659 26.5499 18.7659 26.5499C18.7659 26.5499 18.3728 25.9926 18.0671 24.6096C17.7614 23.2267 17.6304 21.885 17.8487 21.4721C18.0671 21.0593 18.2636 20.9355 18.2855 20.9561C18.3291 20.9974 17.9142 21.596 18.1981 23.1854C18.482 24.7747 19.2463 26.1164 19.421 26.0545C19.5957 25.9926 19.3118 25.6623 19.2026 24.7335C19.0934 23.8046 19.3118 23.2267 19.552 23.1441C19.6612 23.0615 19.8359 24.1761 19.8577 24.6715ZM17.7177 27.3136C17.1281 26.7976 16.211 25.0018 16.0144 25.0844C15.7961 25.1876 17.4993 27.7677 17.543 27.9741C17.5867 28.2218 17.9579 28.9236 17.674 28.8204C17.3902 28.7172 15.3593 26.6944 15.5995 27.0866C15.8397 27.4788 17.3683 29.2539 17.281 29.3571C17.1936 29.4603 16.0144 28.3663 15.9708 28.5108C15.9489 28.6347 17.1281 29.708 17.1063 29.8319C17.0844 29.9557 16.342 29.1507 16.342 29.3158C16.342 29.4809 17.1063 30.286 17.1063 30.4098C17.1063 30.5337 16.4512 29.8319 16.6695 30.2034C16.8661 30.6162 17.4338 30.9671 17.412 31.091C17.3902 31.2148 16.9316 30.9258 16.9316 30.9878C16.9316 31.0497 17.7832 31.3387 17.9798 31.5657C18.1981 31.7928 19.5957 33.3202 20.6439 34.0839C21.692 34.8477 24.7055 36.1894 24.9239 36.1894C25.1204 36.1894 25.4262 35.7765 25.3606 35.6114C25.2951 35.4463 22.3471 34.4968 21.5392 33.795C20.7094 33.0932 18.7004 31.4006 18.5257 31.318C18.3728 31.2148 17.9142 31.2561 17.9142 31.1529C17.9142 31.0497 18.5038 31.2148 18.4602 31.1529C18.4383 31.091 17.6522 30.7607 17.674 30.6988C17.7177 30.6369 18.22 30.8226 18.22 30.7607C18.22 30.6988 17.3028 30.224 17.3465 30.1208C17.3683 30.0176 18.0234 30.4098 18.0234 30.3272C18.0234 30.286 17.1499 29.708 17.1718 29.6048C17.1936 29.5016 17.8487 30.0589 17.8269 29.9351C17.8051 29.8112 17.3028 29.1094 17.3028 29.0268C17.3028 28.9236 18.0889 29.7286 18.1763 29.5635C18.22 29.419 17.8924 28.0773 17.9142 28.0567C17.9361 28.0361 18.5038 28.3457 18.5912 28.1599C18.7004 27.9535 18.1981 27.6852 17.7177 27.3136ZM27.7845 37.4691C27.3696 37.531 27.1731 37.3865 27.4133 37.0563C27.7409 37.0563 28.6144 36.788 28.9201 36.6641C29.2258 36.5403 29.5533 36.3751 29.8154 36.1481C30.0774 35.8797 30.2521 36.2926 30.0993 36.5196C29.9901 36.6641 29.4878 36.9324 29.1166 37.0769C28.5707 37.2421 28.0903 37.4898 27.7845 37.4691ZM30.5142 36.4164C30.2303 36.1274 30.4705 35.921 30.8854 35.694C31.4968 35.3843 31.3221 34.9509 32.1083 34.6C32.4577 34.3936 37.3491 32.5359 38.9432 31.5451C40.5373 30.5543 45.0139 27.3549 46.2149 25.1463C47.3941 22.9583 46.8264 22.7932 47.0011 22.7106C47.1539 22.6074 47.3286 23.0202 47.3068 23.5156C47.2631 23.9904 46.87 25.4353 47.0011 25.5798C47.1321 25.7242 48.7917 24.4445 49.4905 22.8964C50.1893 21.3483 50.7134 19.7383 51.0409 19.7383C51.3903 19.7383 50.4731 22.3804 49.8836 23.4124C49.3158 24.4445 48.6388 24.9605 48.7917 25.1876C48.9664 25.394 50.6697 24.0523 51.2593 23.0615C51.827 22.0501 52.373 21.1625 52.4821 21.3483C52.3084 22.5574 51.8041 23.7029 51.0191 24.6715C50.1019 25.6623 49.0101 26.3848 49.1848 26.5293C49.3376 26.6944 50.5823 26.8595 51.8707 26.0339C53.1809 25.1876 53.312 23.9697 53.4648 24.0317C53.6395 24.0936 53.312 25.7655 52.0672 26.7976C50.8225 27.8297 49.1848 27.9329 49.2284 28.1599C49.3158 28.3663 52.7879 27.2104 52.7224 27.4787C52.6568 27.7264 48.2239 29.3777 48.1803 29.5429C48.1803 29.6667 48.9446 29.708 50.1456 29.4397C51.3248 29.192 52.4603 28.3044 52.6132 28.5108C52.6568 28.7998 51.7615 29.5016 50.4076 29.8319C49.0319 30.1621 48.355 30.5956 48.3113 30.6988C48.2895 30.802 50.757 30.4098 50.757 30.5337C50.757 30.6575 47.5252 31.2561 47.5033 31.4212C47.4597 31.5657 50.5605 30.8226 50.5168 31.0084C50.4295 31.1529 46.3023 32.3088 46.346 32.3707C46.3678 32.4533 49.7962 31.6689 49.7307 31.7928C49.6433 31.9373 43.9657 33.4441 43.9221 33.5473C43.8784 33.6298 48.9446 32.4739 48.9009 32.5771C48.8572 32.6803 46.2805 33.2789 46.2805 33.3409C46.2805 33.4028 48.355 33.0312 48.3113 33.1345C48.2895 33.217 43.0704 34.4761 42.9612 34.6619C42.852 34.8683 45.669 34.1459 45.6253 34.5174C45.5817 34.889 39.5765 36.788 39.5547 36.437C39.511 36.0861 43.2014 35.1986 43.1796 35.0954C43.1359 34.9922 41.0614 35.3018 41.0177 35.116C40.9959 34.9096 42.3935 34.4968 42.2843 34.4142C42.1751 34.311 41.1269 34.7032 41.2143 34.4761C41.3235 34.2491 43.3106 33.3821 43.2669 33.3202C43.2451 33.2583 42.5463 33.5266 42.6118 33.3202C42.6992 33.0932 46.9137 31.9373 46.8482 31.7928C46.7827 31.6689 44.9047 32.0817 44.73 32.123C44.6645 31.9992 47.3505 31.0497 47.3068 30.8846C47.2194 30.7401 45.8655 31.4419 45.7782 31.2561C45.7345 31.0497 48.1584 30.1621 48.0056 30.0176C47.8527 29.8731 46.7609 30.3892 46.608 30.2447C46.4552 30.1002 48.9009 28.5108 48.5297 28.4695C48.1584 28.4489 47.6999 28.9649 47.6562 28.6347C47.6999 28.2218 49.556 27.5407 49.1411 27.2104C48.486 27.0246 46.2805 27.3549 45.3633 27.8709C44.4461 28.387 41.389 31.2561 40.6465 31.7102C39.9041 32.1437 37.371 33.1551 36.8906 33.3615C36.1481 33.6092 36.0171 33.9807 35.2528 34.3523C33.8771 34.7032 33.8989 35.0954 33.2438 35.3224C33.0036 35.3843 30.536 36.499 30.5142 36.4164ZM27.0639 37.8613C26.649 38.0677 26.2778 38.5631 26.518 38.7695C26.649 39.0172 27.0639 38.2122 27.3915 38.2535L29.1384 38.336C30.0774 38.398 30.536 38.1503 31.0601 38.1916C31.5842 38.2328 32.7415 37.9232 33.2875 37.9232C33.8334 37.9232 33.9426 37.9851 33.9862 37.7581C34.0518 37.5517 32.283 37.6962 31.4968 37.6755C30.7107 37.6342 29.728 37.82 29.1384 37.82C28.5925 37.7994 27.6535 37.6342 27.0639 37.8613Z" fill="#FFEC2D"/>
<path d="M29.6843 37.6138C29.6843 37.4428 29.5181 37.3042 29.3131 37.3042C29.1081 37.3042 28.9419 37.4428 28.9419 37.6138C28.9419 37.7848 29.1081 37.9234 29.3131 37.9234C29.5181 37.9234 29.6843 37.7848 29.6843 37.6138Z" fill="#FFEC2D"/>
<path fill-rule="evenodd" clip-rule="evenodd" d="M38.3972 37.015C38.7684 36.953 39.7729 37.2833 40.4717 37.4278C41.7383 37.9025 44.0967 37.6755 44.0967 37.9025C44.0967 38.1296 43.9438 38.3979 43.3979 38.4392C42.8519 38.4805 41.4762 38.2328 41.5199 38.2328C41.5636 38.2328 42.6117 38.7075 42.306 38.8314C42.0003 38.9552 41.105 38.5631 40.9521 38.6663C40.7993 38.7695 41.7819 38.9552 41.6072 39.0172C41.4762 39.0791 40.7993 38.9346 40.5809 38.9552C40.3625 38.9965 40.7556 39.2236 40.4936 39.3061C40.2315 39.4093 39.7948 39.1823 39.6201 39.2442C39.4235 39.3061 40.0131 39.657 39.7511 39.6983C39.4891 39.7396 38.8776 39.5332 38.5282 39.4919C38.1788 39.4919 38.8558 39.8222 38.6374 39.8635C38.419 39.8841 37.8076 39.5951 37.6548 39.5951C37.5019 39.5951 37.6548 40.008 37.4364 40.008C37.218 40.008 36.956 39.657 36.8249 39.657C36.6939 39.657 36.8249 40.0699 36.6066 40.0699C36.3882 40.0699 36.3009 39.6364 36.1262 39.657C35.9078 39.6983 36.1262 40.2144 35.8205 40.1731C35.5366 40.1524 35.4929 39.6364 35.2527 39.657C35.0343 39.6983 35.2964 40.1731 35.078 40.1731C34.8596 40.1731 34.816 39.6983 34.5976 39.657C34.3792 39.6364 34.4666 40.1112 34.3355 40.1112C34.2045 40.1112 34.0735 39.657 33.9861 39.657C33.9206 39.657 33.9861 40.1112 33.7241 40.0699C33.4621 40.0286 33.4621 39.5745 33.3965 39.5951C33.3092 39.6364 33.3092 39.9667 33.1345 39.9667C32.9598 39.9667 32.938 39.6364 32.8725 39.6777C32.7851 39.6983 32.5231 40.1112 32.3484 40.0492C32.1518 39.9873 32.392 39.657 32.3047 39.657C32.2174 39.657 31.999 39.8841 31.868 39.8635C31.7369 39.8428 31.868 39.5745 31.8243 39.5745C31.7806 39.5745 31.4531 39.7396 31.3002 39.7396C31.1473 39.7396 30.7324 39.946 30.6233 39.7603C30.5141 39.5538 30.9071 39.5538 30.9945 39.3681C31.06 39.1823 30.7761 38.625 31.0818 38.4392C31.3657 38.2328 32.3047 38.7075 33.7023 38.3773C36.2354 37.7374 38.2007 36.9943 38.3972 37.015Z" fill="#FFEC2D"/>
</g>
<defs>
<clipPath id="clip0_2714_14499">
<rect width="60" height="45" fill="white"/>
</clipPath>
</defs>
</svg>
